{
  "asset": {
    "version": "2.0",
    "generator": "THREE.GLTFExporter"
  },
  "scenes": [
    {
      "nodes": [
        10
      ],
      "name": "AuxScene"
    }
  ],
  "scene": 0,
  "nodes": [
    {
      "matrix": [
        1,
        0,
        0,
        0,
        0,
        1,
        0,
        0,
        0,
        0,
        1,
        0,
        0,
        0,
        0.0037,
        1
      ],
      "name": "nano",
      "mesh": 0
    },
    {
      "matrix": [
        1,
        0,
        0,
        0,
        0,
        1,
        0,
        0,
        0,
        0,
        1,
        0,
        0.000127926,
        0.0000631514,
        0.002,
        1
      ],
      "name": "mid",
      "mesh": 1
    },
    {
      "matrix": [
        1,
        0,
        0,
        0,
        0,
        1,
        0,
        0,
        0,
        0,
        1,
        0,
        0.000127926,
        0.0000631514,
        0.002,
        1
      ],
      "name": "tapa",
      "mesh": 2
    },
    {
      "matrix": [
        1,
        0,
        0,
        0,
        0,
        1,
        0,
        0,
        0,
        0,
        1,
        0,
        1.04083e-17,
        -0.0003,
        3.1225e-17,
        1
      ],
      "name": "pala",
      "mesh": 3
    },
    {
      "name": "base",
      "mesh": 4
    },
    {
      "name": "servo2",
      "mesh": 5
    },
    {
      "name": "servo1",
      "mesh": 6
    },
    {
      "matrix": [
        -1,
        1.293455e-30,
        5.4067292082125e-91,
        0,
        -1.293455e-30,
        -1,
        -8.360135000000001e-61,
        0,
        -5.4067292082125e-91,
        -8.360135000000001e-61,
        1,
        0,
        -0.0425,
        -0.0160025,
        -8.77762e-18,
        1
      ],
      "name": "roda1",
      "mesh": 7
    },
    {
      "matrix": [
        1,
        0,
        0,
        0,
        0,
        1,
        0,
        0,
        0,
        0,
        1,
        0,
        0.0425,
        -0.0159975,
        -8.77762e-18,
        1
      ],
      "name": "roda2",
      "mesh": 8
    },
    {
      "name": "5b9a1427f24f6a10ed21369b",
      "children": [
        0,
        1,
        2,
        3,
        4,
        5,
        6,
        7,
        8
      ]
    },
    {
      "matrix": [
        1,
        0,
        0,
        0,
        0,
        2.220446049250313e-16,
        -1,
        0,
        0,
        1,
        2.220446049250313e-16,
        0,
        0,
        0,
        0,
        1
      ],
      "name": "null",
      "children": [
        9
      ]
    }
  ],
  "bufferViews": [
    {
      "buffer": 0,
      "byteOffset": 0,
      "byteLength": 275760,
      "target": 34962,
      "byteStride": 12
    },
    {
      "buffer": 0,
      "byteOffset": 275760,
      "byteLength": 45960,
      "target": 34963
    },
    {
      "buffer": 0,
      "byteOffset": 321720,
      "byteLength": 240624,
      "target": 34962,
      "byteStride": 12
    },
    {
      "buffer": 0,
      "byteOffset": 562344,
      "byteLength": 40104,
      "target": 34963
    },
    {
      "buffer": 0,
      "byteOffset": 602448,
      "byteLength": 233280,
      "target": 34962,
      "byteStride": 12
    },
    {
      "buffer": 0,
      "byteOffset": 835728,
      "byteLength": 38880,
      "target": 34963
    },
    {
      "buffer": 0,
      "byteOffset": 874608,
      "byteLength": 263592,
      "target": 34962,
      "byteStride": 12
    },
    {
      "buffer": 0,
      "byteOffset": 1138200,
      "byteLength": 43932,
      "target": 34963
    },
    {
      "buffer": 0,
      "byteOffset": 1182132,
      "byteLength": 403200,
      "target": 34962,
      "byteStride": 12
    },
    {
      "buffer": 0,
      "byteOffset": 1585332,
      "byteLength": 67200,
      "target": 34963
    },
    {
      "buffer": 0,
      "byteOffset": 1652532,
      "byteLength": 44136,
      "target": 34962,
      "byteStride": 12
    },
    {
      "buffer": 0,
      "byteOffset": 1696668,
      "byteLength": 7356,
      "target": 34963
    },
    {
      "buffer": 0,
      "byteOffset": 1704024,
      "byteLength": 44136,
      "target": 34962,
      "byteStride": 12
    },
    {
      "buffer": 0,
      "byteOffset": 1748160,
      "byteLength": 7356,
      "target": 34963
    },
    {
      "buffer": 0,
      "byteOffset": 1755516,
      "byteLength": 221184,
      "target": 34962,
      "byteStride": 12
    },
    {
      "buffer": 0,
      "byteOffset": 1976700,
      "byteLength": 36864,
      "target": 34963
    },
    {
      "buffer": 0,
      "byteOffset": 2013564,
      "byteLength": 221184,
      "target": 34962,
      "byteStride": 12
    },
    {
      "buffer": 0,
      "byteOffset": 2234748,
      "byteLength": 36864,
      "target": 34963
    }
  ],
  "buffers": [
    {
      "byteLength": 2271612,
      "uri": "data:application/octet-stream;base64,"
    }
  ],
  "accessors": [
    {
      "bufferView": 0,
      "componentType": 5126,
      "count": 22980,
      "max": [
        0.026669999584555626,
        0.01769999973475933,
        0.009650000371038914
      ],
      "min": [
        -0.026669999584555626,
        -0.039500001817941666,
        0.00800000037997961
      ],
      "type": "VEC3"
    },
    {
      "bufferView": 1,
      "componentType": 5123,
      "count": 22980,
      "max": [
        22979
      ],
      "min": [
        0
      ],
      "type": "SCALAR"
    },
    {
      "bufferView": 2,
      "componentType": 5126,
      "count": 20052,
      "max": [
        0.04761910066008568,
        0.04399999976158142,
        0.03099999949336052
      ],
      "min": [
        -0.04761910066008568,
        -0.04600000008940697,
        0.008200000040233135
      ],
      "type": "VEC3"
    },
    {
      "bufferView": 3,
      "componentType": 5123,
      "count": 20052,
      "max": [
        20051
      ],
      "min": [
        0
      ],
      "type": "SCALAR"
    },
    {
      "bufferView": 4,
      "componentType": 5126,
      "count": 19440,
      "max": [
        0.04100000113248825,
        0.04399999976158142,
        0.0430000014603138
      ],
      "min": [
        -0.04100000113248825,
        -0.04600000008940697,
        0.020999999716877937
      ],
      "type": "VEC3"
    },
    {
      "bufferView": 5,
      "componentType": 5123,
      "count": 19440,
      "max": [
        19439
      ],
      "min": [
        0
      ],
      "type": "SCALAR"
    },
    {
      "bufferView": 6,
      "componentType": 5126,
      "count": 21966,
      "max": [
        0.05000000074505806,
        0.05497559905052185,
        0.013000000268220901
      ],
      "min": [
        -0.05000000074505806,
        -0.01857439987361431,
        -0.02800000086426735
      ],
      "type": "VEC3"
    },
    {
      "bufferView": 7,
      "componentType": 5123,
      "count": 21966,
      "max": [
        21965
      ],
      "min": [
        0
      ],
      "type": "SCALAR"
    },
    {
      "bufferView": 8,
      "componentType": 5126,
      "count": 33600,
      "max": [
        0.05000000074505806,
        0.04399999976158142,
        0.014000000432133675
      ],
      "min": [
        -0.05000000074505806,
        -0.04600000008940697,
        -0.02199999988079071
      ],
      "type": "VEC3"
    },
    {
      "bufferView": 9,
      "componentType": 5123,
      "count": 33600,
      "max": [
        33599
      ],
      "min": [
        0
      ],
      "type": "SCALAR"
    },
    {
      "bufferView": 10,
      "componentType": 5126,
      "count": 3678,
      "max": [
        0.0494999997317791,
        -0.004999999888241291,
        0.0062500000931322575
      ],
      "min": [
        0.01600000075995922,
        -0.039000000804662704,
        -0.0062500000931322575
      ],
      "type": "VEC3"
    },
    {
      "bufferView": 11,
      "componentType": 5123,
      "count": 3678,
      "max": [
        3677
      ],
      "min": [
        0
      ],
      "type": "SCALAR"
    },
    {
      "bufferView": 12,
      "componentType": 5126,
      "count": 3678,
      "max": [
        -0.01600000075995922,
        -0.004999999888241291,
        0.0062500000931322575
      ],
      "min": [
        -0.0494999997317791,
        -0.039000000804662704,
        -0.0062500000931322575
      ],
      "type": "VEC3"
    },
    {
      "bufferView": 13,
      "componentType": 5123,
      "count": 3678,
      "max": [
        3677
      ],
      "min": [
        0
      ],
      "type": "SCALAR"
    },
    {
      "bufferView": 14,
      "componentType": 5126,
      "count": 18432,
      "max": [
        0.009999999776482582,
        0.029994400218129158,
        0.029999999329447746
      ],
      "min": [
        0,
        -0.029994400218129158,
        -0.029999999329447746
      ],
      "type": "VEC3"
    },
    {
      "bufferView": 15,
      "componentType": 5123,
      "count": 18432,
      "max": [
        18431
      ],
      "min": [
        0
      ],
      "type": "SCALAR"
    },
    {
      "bufferView": 16,
      "componentType": 5126,
      "count": 18432,
      "max": [
        0.009999999776482582,
        0.029994400218129158,
        0.029999999329447746
      ],
      "min": [
        0,
        -0.029994400218129158,
        -0.029999999329447746
      ],
      "type": "VEC3"
    },
    {
      "bufferView": 17,
      "componentType": 5123,
      "count": 18432,
      "max": [
        18431
      ],
      "min": [
        0
      ],
      "type": "SCALAR"
    }
  ],
  "materials": [
    {
      "pbrMetallicRoughness": {
        "baseColorFactor": [
          0.768627,
          0.886275,
          0.952941,
          1
        ],
        "metallicFactor": 0.5,
        "roughnessFactor": 0.5
      },
      "name": null
    },
    {
      "pbrMetallicRoughness": {
        "metallicFactor": 0.5,
        "roughnessFactor": 0.5
      },
      "name": null
    },
    {
      "pbrMetallicRoughness": {
        "baseColorFactor": [
          0.901961,
          0.901961,
          0.901961,
          1
        ],
        "metallicFactor": 0.5,
        "roughnessFactor": 0.5
      },
      "name": null
    },
    {
      "pbrMetallicRoughness": {
        "baseColorFactor": [
          0.843137,
          1,
          0.00392157,
          1
        ],
        "metallicFactor": 0.5,
        "roughnessFactor": 0.5
      },
      "name": null
    }
  ],
  "meshes": [
    {
      "primitives": [
        {
          "mode": 4,
          "attributes": {
            "POSITION": 0
          },
          "indices": 1,
          "material": 0
        }
      ]
    },
    {
      "primitives": [
        {
          "mode": 4,
          "attributes": {
            "POSITION": 2
          },
          "indices": 3,
          "material": 1
        }
      ]
    },
    {
      "primitives": [
        {
          "mode": 4,
          "attributes": {
            "POSITION": 4
          },
          "indices": 5,
          "material": 1
        }
      ]
    },
    {
      "primitives": [
        {
          "mode": 4,
          "attributes": {
            "POSITION": 6
          },
          "indices": 7,
          "material": 1
        }
      ]
    },
    {
      "primitives": [
        {
          "mode": 4,
          "attributes": {
            "POSITION": 8
          },
          "indices": 9,
          "material": 2
        }
      ]
    },
    {
      "primitives": [
        {
          "mode": 4,
          "attributes": {
            "POSITION": 10
          },
          "indices": 11,
          "material": 1
        }
      ]
    },
    {
      "primitives": [
        {
          "mode": 4,
          "attributes": {
            "POSITION": 12
          },
          "indices": 13,
          "material": 1
        }
      ]
    },
    {
      "primitives": [
        {
          "mode": 4,
          "attributes": {
            "POSITION": 14
          },
          "indices": 15,
          "material": 3
        }
      ]
    },
    {
      "primitives": [
        {
          "mode": 4,
          "attributes": {
            "POSITION": 16
          },
          "indices": 17,
          "material": 3
        }
      ]
    }
  ]
}